<svg xmlns="http://www.w3.org/2000/svg" viewBox="0 0 540 615" width="540" height="615"><rect width="540" height="615" fill="#0D1118" rx="12"/><text x="270" y="22" text-anchor="middle" font-family="monospace" font-size="10" fill="#5A8FAF" opacity="0.6" letter-spacing="2">HNEFATAFL · THE KING'S TABLE · MOVE 2</text><text x="270" y="38" text-anchor="middle" font-family="Georgia,serif" font-size="11" font-style="italic" fill="#F0EAE2" opacity="0.45">your move — open an Issue: Move: from-to</text><rect x="24" y="74" width="492" height="492" rx="6" fill="#111827" opacity="0.8"/><rect x="28" y="78" width="44" height="44" fill="#1A2E48" stroke="#5A8FAF" stroke-width="1.5"/><text x="18" y="104" text-anchor="middle" font-family="monospace" font-size="9" fill="#5A8FAF" opacity="0.4">11</text><rect x="72" y="78" width="44" height="44" fill="#0F1822" stroke="#1E3A5F" stroke-width="0.5"/><rect x="116" y="78" width="44" height="44" fill="#0D1118" stroke="#1E3A5F" stroke-width="0.5"/><rect x="160" y="78" width="44" height="44" fill="#0F1822" stroke="#1E3A5F" stroke-width="0.5"/><rect x="204" y="78" width="44" height="44" fill="#0D1118" stroke="#1E3A5F" stroke-width="0.5"/><rect x="248" y="78" width="44" height="44" fill="#0F1822" stroke="#1E3A5F" stroke-width="0.5"/><rect x="292" y="78" width="44" height="44" fill="#0D1118" stroke="#1E3A5F" stroke-width="0.5"/><rect x="336" y="78" width="44" height="44" fill="#0F1822" stroke="#1E3A5F" stroke-width="0.5"/><rect x="380" y="78" width="44" height="44" fill="#0D1118" stroke="#1E3A5F" stroke-width="0.5"/><rect x="424" y="78" width="44" height="44" fill="#0F1822" stroke="#1E3A5F" stroke-width="0.5"/><rect x="468" y="78" width="44" height="44" fill="#1A2E48" stroke="#5A8FAF" stroke-width="1.5"/><rect x="28" y="122" width="44" height="44" fill="#0F1822" stroke="#1E3A5F" stroke-width="0.5"/><text x="18" y="148" text-anchor="middle" font-family="monospace" font-size="9" fill="#5A8FAF" opacity="0.4">10</text><rect x="72" y="122" width="44" height="44" fill="#0D1118" stroke="#1E3A5F" stroke-width="0.5"/><rect x="116" y="122" width="44" height="44" fill="#0F1822" stroke="#1E3A5F" stroke-width="0.5"/><rect x="160" y="122" width="44" height="44" fill="#0D1118" stroke="#1E3A5F" stroke-width="0.5"/><rect x="204" y="122" width="44" height="44" fill="#0F1822" stroke="#1E3A5F" stroke-width="0.5"/><rect x="248" y="122" width="44" height="44" fill="#0D1118" stroke="#1E3A5F" stroke-width="0.5"/><rect x="292" y="122" width="44" height="44" fill="#0F1822" stroke="#1E3A5F" stroke-width="0.5"/><rect x="336" y="122" width="44" height="44" fill="#0D1118" stroke="#1E3A5F" stroke-width="0.5"/><rect x="380" y="122" width="44" height="44" fill="#0F1822" stroke="#1E3A5F" stroke-width="0.5"/><rect x="424" y="122" width="44" height="44" fill="#0D1118" stroke="#1E3A5F" stroke-width="0.5"/><rect x="468" y="122" width="44" height="44" fill="#0F1822" stroke="#1E3A5F" stroke-width="0.5"/><rect x="28" y="166" width="44" height="44" fill="#0D1118" stroke="#1E3A5F" stroke-width="0.5"/><text x="18" y="192" text-anchor="middle" font-family="monospace" font-size="9" fill="#5A8FAF" opacity="0.4">9</text><rect x="72" y="166" width="44" height="44" fill="#0F1822" stroke="#1E3A5F" stroke-width="0.5"/><rect x="116" y="166" width="44" height="44" fill="#0D1118" stroke="#1E3A5F" stroke-width="0.5"/><rect x="160" y="166" width="44" height="44" fill="#0F1822" stroke="#1E3A5F" stroke-width="0.5"/><rect x="204" y="166" width="44" height="44" fill="#0D1118" stroke="#1E3A5F" stroke-width="0.5"/><rect x="248" y="166" width="44" height="44" fill="#0F1822" stroke="#1E3A5F" stroke-width="0.5"/><rect x="292" y="166" width="44" height="44" fill="#0D1118" stroke="#1E3A5F" stroke-width="0.5"/><rect x="336" y="166" width="44" height="44" fill="#0F1822" stroke="#1E3A5F" stroke-width="0.5"/><rect x="380" y="166" width="44" height="44" fill="#0D1118" stroke="#1E3A5F" stroke-width="0.5"/><rect x="424" y="166" width="44" height="44" fill="#0F1822" stroke="#1E3A5F" stroke-width="0.5"/><rect x="468" y="166" width="44" height="44" fill="#0D1118" stroke="#1E3A5F" stroke-width="0.5"/><rect x="28" y="210" width="44" height="44" fill="#0F1822" stroke="#1E3A5F" stroke-width="0.5"/><text x="18" y="236" text-anchor="middle" font-family="monospace" font-size="9" fill="#5A8FAF" opacity="0.4">8</text><rect x="72" y="210" width="44" height="44" fill="#0D1118" stroke="#1E3A5F" stroke-width="0.5"/><rect x="116" y="210" width="44" height="44" fill="#0F1822" stroke="#1E3A5F" stroke-width="0.5"/><rect x="160" y="210" width="44" height="44" fill="#0D1118" stroke="#1E3A5F" stroke-width="0.5"/><rect x="204" y="210" width="44" height="44" fill="#0F1822" stroke="#1E3A5F" stroke-width="0.5"/><rect x="248" y="210" width="44" height="44" fill="#0D1118" stroke="#1E3A5F" stroke-width="0.5"/><rect x="292" y="210" width="44" height="44" fill="#0F1822" stroke="#1E3A5F" stroke-width="0.5"/><rect x="336" y="210" width="44" height="44" fill="#0D1118" stroke="#1E3A5F" stroke-width="0.5"/><rect x="380" y="210" width="44" height="44" fill="#0F1822" stroke="#1E3A5F" stroke-width="0.5"/><rect x="424" y="210" width="44" height="44" fill="#0D1118" stroke="#1E3A5F" stroke-width="0.5"/><rect x="468" y="210" width="44" height="44" fill="#0F1822" stroke="#1E3A5F" stroke-width="0.5"/><rect x="28" y="254" width="44" height="44" fill="#0D1118" stroke="#1E3A5F" stroke-width="0.5"/><text x="18" y="280" text-anchor="middle" font-family="monospace" font-size="9" fill="#5A8FAF" opacity="0.4">7</text><rect x="72" y="254" width="44" height="44" fill="#0F1822" stroke="#1E3A5F" stroke-width="0.5"/><rect x="116" y="254" width="44" height="44" fill="#0D1118" stroke="#1E3A5F" stroke-width="0.5"/><rect x="160" y="254" width="44" height="44" fill="#0F1822" stroke="#1E3A5F" stroke-width="0.5"/><rect x="204" y="254" width="44" height="44" fill="#0D1118" stroke="#1E3A5F" stroke-width="0.5"/><rect x="248" y="254" width="44" height="44" fill="#0F1822" stroke="#1E3A5F" stroke-width="0.5"/><rect x="292" y="254" width="44" height="44" fill="#0D1118" stroke="#1E3A5F" stroke-width="0.5"/><rect x="336" y="254" width="44" height="44" fill="#0F1822" stroke="#1E3A5F" stroke-width="0.5"/><rect x="380" y="254" width="44" height="44" fill="#0D1118" stroke="#1E3A5F" stroke-width="0.5"/><rect x="424" y="254" width="44" height="44" fill="#0F1822" stroke="#1E3A5F" stroke-width="0.5"/><rect x="468" y="254" width="44" height="44" fill="#0D1118" stroke="#1E3A5F" stroke-width="0.5"/><rect x="28" y="298" width="44" height="44" fill="#0F1822" stroke="#1E3A5F" stroke-width="0.5"/><text x="18" y="324" text-anchor="middle" font-family="monospace" font-size="9" fill="#5A8FAF" opacity="0.4">6</text><rect x="72" y="298" width="44" height="44" fill="#0D1118" stroke="#1E3A5F" stroke-width="0.5"/><rect x="116" y="298" width="44" height="44" fill="#0F1822" stroke="#1E3A5F" stroke-width="0.5"/><rect x="116" y="298" width="44" height="44" fill="#5A8FAF" opacity="0.14"/><rect x="160" y="298" width="44" height="44" fill="#0D1118" stroke="#1E3A5F" stroke-width="0.5"/><rect x="160" y="298" width="44" height="44" fill="#5A8FAF" opacity="0.14"/><rect x="204" y="298" width="44" height="44" fill="#0F1822" stroke="#1E3A5F" stroke-width="0.5"/><rect x="248" y="298" width="44" height="44" fill="#2E4B6B" stroke="#5A8FAF" stroke-width="1"/><rect x="292" y="298" width="44" height="44" fill="#0F1822" stroke="#1E3A5F" stroke-width="0.5"/><rect x="336" y="298" width="44" height="44" fill="#0D1118" stroke="#1E3A5F" stroke-width="0.5"/><rect x="380" y="298" width="44" height="44" fill="#0F1822" stroke="#1E3A5F" stroke-width="0.5"/><rect x="424" y="298" width="44" height="44" fill="#0D1118" stroke="#1E3A5F" stroke-width="0.5"/><rect x="468" y="298" width="44" height="44" fill="#0F1822" stroke="#1E3A5F" stroke-width="0.5"/><rect x="28" y="342" width="44" height="44" fill="#0D1118" stroke="#1E3A5F" stroke-width="0.5"/><text x="18" y="368" text-anchor="middle" font-family="monospace" font-size="9" fill="#5A8FAF" opacity="0.4">5</text><rect x="72" y="342" width="44" height="44" fill="#0F1822" stroke="#1E3A5F" stroke-width="0.5"/><rect x="116" y="342" width="44" height="44" fill="#0D1118" stroke="#1E3A5F" stroke-width="0.5"/><rect x="160" y="342" width="44" height="44" fill="#0F1822" stroke="#1E3A5F" stroke-width="0.5"/><rect x="204" y="342" width="44" height="44" fill="#0D1118" stroke="#1E3A5F" stroke-width="0.5"/><rect x="248" y="342" width="44" height="44" fill="#0F1822" stroke="#1E3A5F" stroke-width="0.5"/><rect x="292" y="342" width="44" height="44" fill="#0D1118" stroke="#1E3A5F" stroke-width="0.5"/><rect x="336" y="342" width="44" height="44" fill="#0F1822" stroke="#1E3A5F" stroke-width="0.5"/><rect x="380" y="342" width="44" height="44" fill="#0D1118" stroke="#1E3A5F" stroke-width="0.5"/><rect x="424" y="342" width="44" height="44" fill="#0F1822" stroke="#1E3A5F" stroke-width="0.5"/><rect x="468" y="342" width="44" height="44" fill="#0D1118" stroke="#1E3A5F" stroke-width="0.5"/><rect x="28" y="386" width="44" height="44" fill="#0F1822" stroke="#1E3A5F" stroke-width="0.5"/><text x="18" y="412" text-anchor="middle" font-family="monospace" font-size="9" fill="#5A8FAF" opacity="0.4">4</text><rect x="72" y="386" width="44" height="44" fill="#0D1118" stroke="#1E3A5F" stroke-width="0.5"/><rect x="116" y="386" width="44" height="44" fill="#0F1822" stroke="#1E3A5F" stroke-width="0.5"/><rect x="160" y="386" width="44" height="44" fill="#0D1118" stroke="#1E3A5F" stroke-width="0.5"/><rect x="204" y="386" width="44" height="44" fill="#0F1822" stroke="#1E3A5F" stroke-width="0.5"/><rect x="248" y="386" width="44" height="44" fill="#0D1118" stroke="#1E3A5F" stroke-width="0.5"/><rect x="292" y="386" width="44" height="44" fill="#0F1822" stroke="#1E3A5F" stroke-width="0.5"/><rect x="336" y="386" width="44" height="44" fill="#0D1118" stroke="#1E3A5F" stroke-width="0.5"/><rect x="336" y="386" width="44" height="44" fill="#5A8FAF" opacity="0.14"/><rect x="380" y="386" width="44" height="44" fill="#0F1822" stroke="#1E3A5F" stroke-width="0.5"/><rect x="424" y="386" width="44" height="44" fill="#0D1118" stroke="#1E3A5F" stroke-width="0.5"/><rect x="468" y="386" width="44" height="44" fill="#0F1822" stroke="#1E3A5F" stroke-width="0.5"/><rect x="28" y="430" width="44" height="44" fill="#0D1118" stroke="#1E3A5F" stroke-width="0.5"/><text x="18" y="456" text-anchor="middle" font-family="monospace" font-size="9" fill="#5A8FAF" opacity="0.4">3</text><rect x="72" y="430" width="44" height="44" fill="#0F1822" stroke="#1E3A5F" stroke-width="0.5"/><rect x="116" y="430" width="44" height="44" fill="#0D1118" stroke="#1E3A5F" stroke-width="0.5"/><rect x="160" y="430" width="44" height="44" fill="#0F1822" stroke="#1E3A5F" stroke-width="0.5"/><rect x="204" y="430" width="44" height="44" fill="#0D1118" stroke="#1E3A5F" stroke-width="0.5"/><rect x="248" y="430" width="44" height="44" fill="#0F1822" stroke="#1E3A5F" stroke-width="0.5"/><rect x="292" y="430" width="44" height="44" fill="#0D1118" stroke="#1E3A5F" stroke-width="0.5"/><rect x="336" y="430" width="44" height="44" fill="#0F1822" stroke="#1E3A5F" stroke-width="0.5"/><rect x="380" y="430" width="44" height="44" fill="#0D1118" stroke="#1E3A5F" stroke-width="0.5"/><rect x="424" y="430" width="44" height="44" fill="#0F1822" stroke="#1E3A5F" stroke-width="0.5"/><rect x="468" y="430" width="44" height="44" fill="#0D1118" stroke="#1E3A5F" stroke-width="0.5"/><rect x="28" y="474" width="44" height="44" fill="#0F1822" stroke="#1E3A5F" stroke-width="0.5"/><text x="18" y="500" text-anchor="middle" font-family="monospace" font-size="9" fill="#5A8FAF" opacity="0.4">2</text><rect x="72" y="474" width="44" height="44" fill="#0D1118" stroke="#1E3A5F" stroke-width="0.5"/><rect x="116" y="474" width="44" height="44" fill="#0F1822" stroke="#1E3A5F" stroke-width="0.5"/><rect x="160" y="474" width="44" height="44" fill="#0D1118" stroke="#1E3A5F" stroke-width="0.5"/><rect x="204" y="474" width="44" height="44" fill="#0F1822" stroke="#1E3A5F" stroke-width="0.5"/><rect x="248" y="474" width="44" height="44" fill="#0D1118" stroke="#1E3A5F" stroke-width="0.5"/><rect x="292" y="474" width="44" height="44" fill="#0F1822" stroke="#1E3A5F" stroke-width="0.5"/><rect x="336" y="474" width="44" height="44" fill="#0D1118" stroke="#1E3A5F" stroke-width="0.5"/><rect x="380" y="474" width="44" height="44" fill="#0F1822" stroke="#1E3A5F" stroke-width="0.5"/><rect x="424" y="474" width="44" height="44" fill="#0D1118" stroke="#1E3A5F" stroke-width="0.5"/><rect x="468" y="474" width="44" height="44" fill="#0F1822" stroke="#1E3A5F" stroke-width="0.5"/><rect x="28" y="518" width="44" height="44" fill="#1A2E48" stroke="#5A8FAF" stroke-width="1.5"/><text x="50" y="576" text-anchor="middle" font-family="monospace" font-size="9" fill="#5A8FAF" opacity="0.4">a</text><text x="18" y="544" text-anchor="middle" font-family="monospace" font-size="9" fill="#5A8FAF" opacity="0.4">1</text><rect x="72" y="518" width="44" height="44" fill="#0F1822" stroke="#1E3A5F" stroke-width="0.5"/><text x="94" y="576" text-anchor="middle" font-family="monospace" font-size="9" fill="#5A8FAF" opacity="0.4">b</text><rect x="116" y="518" width="44" height="44" fill="#0D1118" stroke="#1E3A5F" stroke-width="0.5"/><text x="138" y="576" text-anchor="middle" font-family="monospace" font-size="9" fill="#5A8FAF" opacity="0.4">c</text><rect x="160" y="518" width="44" height="44" fill="#0F1822" stroke="#1E3A5F" stroke-width="0.5"/><text x="182" y="576" text-anchor="middle" font-family="monospace" font-size="9" fill="#5A8FAF" opacity="0.4">d</text><rect x="204" y="518" width="44" height="44" fill="#0D1118" stroke="#1E3A5F" stroke-width="0.5"/><text x="226" y="576" text-anchor="middle" font-family="monospace" font-size="9" fill="#5A8FAF" opacity="0.4">e</text><rect x="248" y="518" width="44" height="44" fill="#0F1822" stroke="#1E3A5F" stroke-width="0.5"/><text x="270" y="576" text-anchor="middle" font-family="monospace" font-size="9" fill="#5A8FAF" opacity="0.4">f</text><rect x="292" y="518" width="44" height="44" fill="#0D1118" stroke="#1E3A5F" stroke-width="0.5"/><text x="314" y="576" text-anchor="middle" font-family="monospace" font-size="9" fill="#5A8FAF" opacity="0.4">g</text><rect x="336" y="518" width="44" height="44" fill="#0F1822" stroke="#1E3A5F" stroke-width="0.5"/><rect x="336" y="518" width="44" height="44" fill="#5A8FAF" opacity="0.14"/><text x="358" y="576" text-anchor="middle" font-family="monospace" font-size="9" fill="#5A8FAF" opacity="0.4">h</text><rect x="380" y="518" width="44" height="44" fill="#0D1118" stroke="#1E3A5F" stroke-width="0.5"/><text x="402" y="576" text-anchor="middle" font-family="monospace" font-size="9" fill="#5A8FAF" opacity="0.4">i</text><rect x="424" y="518" width="44" height="44" fill="#0F1822" stroke="#1E3A5F" stroke-width="0.5"/><text x="446" y="576" text-anchor="middle" font-family="monospace" font-size="9" fill="#5A8FAF" opacity="0.4">j</text><rect x="468" y="518" width="44" height="44" fill="#1A2E48" stroke="#5A8FAF" stroke-width="1.5"/><text x="490" y="576" text-anchor="middle" font-family="monospace" font-size="9" fill="#5A8FAF" opacity="0.4">k</text><circle cx="490" cy="540" r="6" fill="#5A8FAF" opacity="0.3"/><circle cx="50" cy="540" r="6" fill="#5A8FAF" opacity="0.3"/><circle cx="490" cy="100" r="6" fill="#5A8FAF" opacity="0.3"/><circle cx="50" cy="100" r="6" fill="#5A8FAF" opacity="0.3"/><circle cx="270" cy="320" r="6" fill="#5A8FAF" opacity="0.25"/><polygon points="182,87 195,100 182,113 169,100" fill="#D4899A" opacity="0.88"/><polygon points="226,87 239,100 226,113 213,100" fill="#D4899A" opacity="0.88"/><polygon points="270,87 283,100 270,113 257,100" fill="#D4899A" opacity="0.88"/><polygon points="314,87 327,100 314,113 301,100" fill="#D4899A" opacity="0.88"/><polygon points="358,87 371,100 358,113 345,100" fill="#D4899A" opacity="0.88"/><polygon points="270,131 283,144 270,157 257,144" fill="#D4899A" opacity="0.88"/><polygon points="50,219 63,232 50,245 37,232" fill="#D4899A" opacity="0.88"/><circle cx="270" cy="232" r="13" fill="#9DC0D8" opacity="0.88"/><polygon points="490,219 503,232 490,245 477,232" fill="#D4899A" opacity="0.88"/><polygon points="50,263 63,276 50,289 37,276" fill="#D4899A" opacity="0.88"/><circle cx="226" cy="276" r="13" fill="#9DC0D8" opacity="0.88"/><circle cx="270" cy="276" r="13" fill="#9DC0D8" opacity="0.88"/><circle cx="314" cy="276" r="13" fill="#9DC0D8" opacity="0.88"/><polygon points="490,263 503,276 490,289 477,276" fill="#D4899A" opacity="0.88"/><polygon points="50,307 63,320 50,333 37,320" fill="#D4899A" opacity="0.88"/><polygon points="94,307 107,320 94,333 81,320" fill="#D4899A" opacity="0.88"/><circle cx="138" cy="320" r="13" fill="#9DC0D8" opacity="0.88"/><circle cx="226" cy="320" r="13" fill="#9DC0D8" opacity="0.88"/><polygon points="264,306 276,306 284,314 284,326 276,334 264,334 256,326 256,314" fill="#F0EAE2" opacity="0.95"/><polygon points="264,306 276,306 284,314 284,326 276,334 264,334 256,326 256,314" fill="none" stroke="#5A8FAF" stroke-width="1.5"/><text x="270" y="324" text-anchor="middle" font-family="serif" font-size="13" fill="#0D1118" opacity="0.8">K</text><circle cx="314" cy="320" r="13" fill="#9DC0D8" opacity="0.88"/><circle cx="358" cy="320" r="13" fill="#9DC0D8" opacity="0.88"/><polygon points="446,307 459,320 446,333 433,320" fill="#D4899A" opacity="0.88"/><polygon points="490,307 503,320 490,333 477,320" fill="#D4899A" opacity="0.88"/><polygon points="50,351 63,364 50,377 37,364" fill="#D4899A" opacity="0.88"/><circle cx="226" cy="364" r="13" fill="#9DC0D8" opacity="0.88"/><circle cx="270" cy="364" r="13" fill="#9DC0D8" opacity="0.88"/><circle cx="314" cy="364" r="13" fill="#9DC0D8" opacity="0.88"/><polygon points="490,351 503,364 490,377 477,364" fill="#D4899A" opacity="0.88"/><polygon points="50,395 63,408 50,421 37,408" fill="#D4899A" opacity="0.88"/><circle cx="270" cy="408" r="13" fill="#9DC0D8" opacity="0.88"/><polygon points="358,395 371,408 358,421 345,408" fill="#D4899A" opacity="0.88"/><polygon points="490,395 503,408 490,421 477,408" fill="#D4899A" opacity="0.88"/><polygon points="270,483 283,496 270,509 257,496" fill="#D4899A" opacity="0.88"/><polygon points="182,527 195,540 182,553 169,540" fill="#D4899A" opacity="0.88"/><polygon points="226,527 239,540 226,553 213,540" fill="#D4899A" opacity="0.88"/><polygon points="270,527 283,540 270,553 257,540" fill="#D4899A" opacity="0.88"/><polygon points="314,527 327,540 314,553 301,540" fill="#D4899A" opacity="0.88"/><text x="270" y="592" text-anchor="middle" font-family="monospace" font-size="9" fill="#5A8FAF" opacity="0.45">#1 ladyFaye1998: h1-h4</text><text x="270" y="608" text-anchor="middle" font-family="monospace" font-size="9" fill="#5A8FAF" opacity="0.45">#2 The King's Guard: d6-c6</text></svg>